# Wavefront OBJ file made by Mineways version 7.06, http://mineways.com
# Minecraft world: New World
# Terrain file name: C:\Users\Joopst\Desktop\mineways\terrainExt.png
# Color scheme: Standard
# Thu Oct 17 11:26:51 2019

# Selection location min to max: 89, 3, 101 to 97, 255, 107
#   Non-empty selection location min to max: 89, 3, 101 to 97, 4, 107

# Set render type: Wavefront OBJ absolute indices
# Units for the model vertex data itself: meters

# 272 vertices, 234 faces (468 triangles), 68 blocks, 16 billboards/bits
# block dimensions: X=9 by Y=3 (height) by Z=7 blocks
# File type: Export full color texture patterns
# Texture output RGB: YES
# Texture output A: YES
# Texture output RGBA: YES
# Export separate objects: YES
# Individual blocks: no
#   Material per object: YES
#   Split by block type: no
# G3D full material: no
# Make Z the up direction instead of Y: no
# Create composite overlay faces: no
# Center model: YES
# Export lesser blocks: YES
# Fatten lesser blocks: no
# Create block faces at the borders: YES
# Make tree leaves solid: no
# Use biomes: no
# Rotate model 0.000000 degrees
# Scale model by making each block 1000 mm high
# Data operation options:
#   Fill air bubbles: no; Seal off entrances: no; Fill in isolated tunnels in base of model: no
#   Connect parts sharing an edge: no; Connect corner tips: no; Weld all shared edges: no
#   Delete floating objects: trees and parts smaller than 16 blocks: no
#   Hollow out bottom of model, making the walls 1000 mm thick: no; Superhollow: no
# Melt snow blocks: no
#   Debug: show separate parts as colors: no
#   Debug: show weld blocks in bright colors: no

# Full world path: C:\Users\Joopst\AppData\Roaming\.minecraft\saves\New World
# Full terrainExt.png path: C:\Users\Joopst\Desktop\mineways\terrainExt.png
# Full current path: C:\Users\Joopst\Desktop\mineways

mtllib cactus.mtl

o New_World__89_3_101_to_97_255_107
vn -1 0 0
vn 0 -1 0
vn 0 0 -1
vn 1 0 0
vn 0 1 0
vn 0 0 1
vn -0.707107 0 -0.707107
vn -0.707107 0 0.707107
vn 0.707107 0 -0.707107
vn 0.707107 0 0.707107
vn -0.707107 -0.707107 0
vn 0 -0.707107 -0.707107
vn 0.707107 -0.707107 0
vn 0 -0.707107 0.707107
vn -0.707107 0.707107 0
vn 0 0.707107 -0.707107
vn 0.707107 0.707107 0
vn 0 0.707107 0.707107
vn -0.92388 0 -0.382683
vn -0.92388 0 0.382683
vn 0.92388 0 -0.382683
vn 0.92388 0 0.382683
vn -0.382683 0 -0.92388
vn -0.382683 0 0.92388
vn 0.382683 0 -0.92388
vn 0.382683 0 0.92388
vn -0.397273 0.9177 0
vn 0.397273 -0.9177 0
vn 0.397273 0.9177 0
vn -0.397273 -0.9177 0
vn 0 0.9177 -0.397273
vn 0 -0.9177 0.397273
vn 0 0.9177 0.397273
vn 0 -0.9177 -0.397273
vn -0.440932 0.897541 0
vn 0.440932 -0.897541 0
vn 0.440932 0.897541 0
vn -0.440932 -0.897541 0
vn 0 0.897541 -0.440932
vn 0 -0.897541 0.440932
vn 0 0.897541 0.440932
vn 0 -0.897541 -0.440932
# rail_corner
vt 0.00195313 0.826172
vt 0.0332031 0.826172
vt 0.0332031 0.857422
vt 0.00195313 0.857422
# rail
vt 0.564453 0.826172
vt 0.595703 0.826172
vt 0.595703 0.857422
vt 0.564453 0.857422
# oak_planks
vt 0.154297 0.966797
vt 0.162109 0.966797
vt 0.162109 0.998047
vt 0.154297 0.998047
vt 0.154297 0.978516
vt 0.162109 0.978516
vt 0.162109 0.986328
vt 0.154297 0.986328
vt 0.15625 0.978516
vt 0.160156 0.978516
vt 0.160156 0.984375
vt 0.15625 0.984375
vt 0.162109 0.980469
vt 0.173828 0.980469
vt 0.173828 0.984375
vt 0.162109 0.984375
vt 0.142578 0.978516
vt 0.154297 0.984375
vt 0.142578 0.984375
vt 0.173828 0.978516
vt 0.15625 0.990234
vt 0.160156 0.990234
vt 0.160156 0.996094
vt 0.15625 0.996094
vt 0.142578 0.990234
vt 0.154297 0.990234
vt 0.154297 0.996094
vt 0.142578 0.996094
vt 0.162109 0.990234
vt 0.173828 0.990234
vt 0.173828 0.996094
vt 0.162109 0.996094
vt 0.142578 0.980469
vt 0.154297 0.980469
# spruce_planks
vt 0.0722656 0.720703
vt 0.103516 0.720703
vt 0.103516 0.736328
vt 0.0722656 0.736328
vt 0.103516 0.751953
vt 0.0722656 0.751953
# grass_block_side_overlay
vt 0.353516 0.931641
vt 0.384766 0.931641
vt 0.384766 0.962891
vt 0.353516 0.962891
# dirt
vt 0.0722656 0.966797
vt 0.103516 0.966797
vt 0.103516 0.998047
vt 0.0722656 0.998047
# grass_block_top
vt 0.00195313 0.966797
vt 0.0332031 0.966797
vt 0.0332031 0.998047
vt 0.00195313 0.998047
# oak_log
vt 0.705078 0.966797
vt 0.736328 0.966797
vt 0.736328 0.998047
vt 0.705078 0.998047
# glowstone
vt 0.740234 0.861328
vt 0.771484 0.861328
vt 0.771484 0.892578
vt 0.740234 0.892578
# glass
vt 0.740234 0.931641
vt 0.771484 0.931641
vt 0.771484 0.962891
vt 0.740234 0.962891
# oak_planks
vt 0.142578 0.966797
vt 0.173828 0.966797
vt 0.173828 0.998047
vt 0.142578 0.998047
# birch_log
vt 0.177734 0.826172
vt 0.208984 0.826172
vt 0.208984 0.857422
vt 0.177734 0.857422
v -3 1.0625 -1
v -2 1.0625 -1
v -2 1.0625 -2
v -3 1.0625 -2
v -3 1.0625 0
v -2 1.0625 0
v -2 1.0625 -1
v -3 1.0625 -1
v -2 1.0625 1
v -2 1.0625 0
v -3 1.0625 0
v -3 1.0625 1
v -2 1.0625 -2
v -2 1.0625 -1
v -1 1.0625 -1
v -1 1.0625 -2
v -2 1.0625 0
v -2 1.0625 1
v -1 1.0625 1
v -1 1.0625 0
v 0 1.0625 -1
v 1 1.0625 -1
v 1 1.0625 -2
v 0 1.0625 -2
v 0 1.0625 0
v 1 1.0625 0
v 1 1.0625 -1
v 0 1.0625 -1
v 0 1.0625 1
v 1 1.0625 1
v 1 1.0625 0
v 0 1.0625 0
v -0.625 1 2.375
v -0.625 1 2.625
v -0.625 2 2.375
v -0.625 2 2.625
v -0.375 1 2.375
v -0.375 1 2.625
v -0.375 2 2.375
v -0.375 2 2.625
v -0.375 1.375 2.4375
v -0.375 1.375 2.5625
v -0.375 1.5625 2.4375
v -0.375 1.5625 2.5625
v 0 1.375 2.4375
v 0 1.375 2.5625
v 0 1.5625 2.4375
v 0 1.5625 2.5625
v -0.375 1.75 2.4375
v -0.375 1.75 2.5625
v -0.375 1.9375 2.4375
v -0.375 1.9375 2.5625
v 0 1.75 2.4375
v 0 1.75 2.5625
v 0 1.9375 2.4375
v 0 1.9375 2.5625
v 0.375 1 2.375
v 0.375 1 2.625
v 0.375 2 2.375
v 0.375 2 2.625
v 0.625 1 2.375
v 0.625 1 2.625
v 0.625 2 2.375
v 0.625 2 2.625
v 0 1.375 2.4375
v 0 1.375 2.5625
v 0 1.5625 2.4375
v 0 1.5625 2.5625
v 0.375 1.375 2.4375
v 0.375 1.375 2.5625
v 0.375 1.5625 2.4375
v 0.375 1.5625 2.5625
v 0 1.75 2.4375
v 0 1.75 2.5625
v 0 1.9375 2.4375
v 0 1.9375 2.5625
v 0.375 1.75 2.4375
v 0.375 1.75 2.5625
v 0.375 1.9375 2.4375
v 0.375 1.9375 2.5625
v 2 1 1
v 2 1 2
v 2 1.5 1
v 2 1.5 2
v 3 1 1
v 3 1 2
v 3 1.5 1
v 3 1.5 2
v 2.375 1 2.375
v 2.375 1 2.625
v 2.375 2 2.375
v 2.375 2 2.625
v 2.625 1 2.375
v 2.625 1 2.625
v 2.625 2 2.375
v 2.625 2 2.625
v -4 0 -3
v -4 0 -2
v -4 1 -2
v -4 1 -3
v -3 0 -2
v -3 0 -3
v -3 1 -3
v -3 1 -2
v -4 0 -1
v -4 1 -1
v -3 0 -1
v -3 1 -1
v -4 0 0
v -4 1 0
v -3 0 0
v -3 1 0
v -4 0 1
v -4 1 1
v -3 0 1
v -3 1 1
v -4 0 2
v -4 1 2
v -3 0 2
v -3 1 2
v -4 0 3
v -4 1 3
v -3 0 3
v -3 1 3
v -4 0 4
v -4 1 4
v -3 0 4
v -3 1 4
v -2 0 -2
v -2 0 -3
v -2 1 -3
v -2 1 -2
v -2 0 -1
v -2 1 -1
v -2 0 0
v -2 1 0
v -2 0 1
v -2 1 1
v -2 0 2
v -2 1 2
v -2 0 3
v -2 1 3
v -2 0 4
v -2 1 4
v -1 0 -2
v -1 0 -3
v -1 1 -3
v -1 1 -2
v -1 0 -1
v -1 1 -1
v -1 0 0
v -1 1 0
v -1 0 1
v -1 1 1
v -1 0 2
v -1 1 2
v -1 0 3
v -1 1 3
v -1 0 4
v -1 1 4
v 0 0 -2
v 0 0 -3
v 0 1 -3
v 0 1 -2
v 0 0 -1
v 0 1 -1
v 0 0 0
v -1 2 0
v -1 2 -1
v 0 2 -1
v 0 1 0
v 0 2 0
v 0 0 1
v 0 1 1
v 0 0 2
v 0 1 2
v 0 0 3
v 0 1 3
v 0 0 4
v 0 1 4
v 1 0 -2
v 1 0 -3
v 1 1 -3
v 1 1 -2
v 1 0 -1
v 1 1 -1
v 1 0 0
v 1 1 0
v 1 0 1
v 1 1 1
v 1 0 2
v 1 1 2
v 1 0 3
v 1 1 3
v 1 0 4
v 1 1 4
v 2 0 -2
v 2 0 -3
v 2 1 -3
v 2 1 -2
v 2 0 -1
v 2 1 -1
v 2 0 0
v 2 1 0
v 2 0 1
v 2 1 1
v 2 0 2
v 2 1 2
v 2 0 3
v 1 2 3
v 1 2 2
v 2 2 2
v 2 1 3
v 2 2 3
v 2 0 4
v 2 1 4
v 3 0 -2
v 3 0 -3
v 3 1 -3
v 3 1 -2
v 3 0 -1
v 3 1 -1
v 2 2 -1
v 2 2 -2
v 3 2 -2
v 3 2 -1
v 3 0 0
v 2 2 0
v 3 1 0
v 3 2 0
v 3 0 1
v 2 2 1
v 3 1 1
v 3 2 1
v 3 0 2
v 3 0 3
v 3 1 3
v 3 1 2
v 3 0 4
v 3 1 4
v 4 0 -2
v 4 0 -3
v 4 1 -3
v 4 1 -2
v 4 0 -1
v 4 1 -1
v 4 0 0
v 4 1 0
v 4 0 1
v 4 1 1
v 4 0 2
v 4 1 2
v 4 0 3
v 4 1 3
v 4 0 4
v 4 1 4
v 5 0 -2
v 5 0 -3
v 5 1 -3
v 5 1 -2
v 5 0 -1
v 5 1 -1
v 5 0 0
v 5 1 0
v 5 0 1
v 5 1 1
v 5 0 2
v 5 1 2
v 5 0 3
v 5 1 3
v 5 0 4
v 5 1 4

g Grass_Block
usemtl Grass_Block
f 98/50/1 99/51/1 100/52/1 97/49/1
f 98/53/2 97/56/2 102/55/2 101/54/2
f 97/50/3 100/51/3 103/52/3 102/49/3
f 99/57/5 104/58/5 103/59/5 100/60/5
f 105/50/1 106/51/1 99/52/1 98/49/1
f 105/53/2 98/56/2 101/55/2 107/54/2
f 106/57/5 108/58/5 104/59/5 99/60/5
f 109/50/1 110/51/1 106/52/1 105/49/1
f 109/53/2 105/56/2 107/55/2 111/54/2
f 110/57/5 112/58/5 108/59/5 106/60/5
f 113/50/1 114/51/1 110/52/1 109/49/1
f 113/53/2 109/56/2 111/55/2 115/54/2
f 114/57/5 116/58/5 112/59/5 110/60/5
f 117/50/1 118/51/1 114/52/1 113/49/1
f 117/53/2 113/56/2 115/55/2 119/54/2
f 118/57/5 120/58/5 116/59/5 114/60/5
f 121/50/1 122/51/1 118/52/1 117/49/1
f 121/53/2 117/56/2 119/55/2 123/54/2
f 122/57/5 124/58/5 120/59/5 118/60/5
f 125/50/1 126/51/1 122/52/1 121/49/1
f 125/53/2 121/56/2 123/55/2 127/54/2
f 126/57/5 128/58/5 124/59/5 122/60/5
f 125/49/6 127/50/6 128/51/6 126/52/6
f 101/53/2 102/56/2 130/55/2 129/54/2
f 102/50/3 103/51/3 131/52/3 130/49/3
f 104/57/5 132/58/5 131/59/5 103/60/5
f 107/53/2 101/56/2 129/55/2 133/54/2
f 108/57/5 134/58/5 132/59/5 104/60/5
f 111/53/2 107/56/2 133/55/2 135/54/2
f 112/57/5 136/58/5 134/59/5 108/60/5
f 115/53/2 111/56/2 135/55/2 137/54/2
f 116/57/5 138/58/5 136/59/5 112/60/5
f 119/53/2 115/56/2 137/55/2 139/54/2
f 120/57/5 140/58/5 138/59/5 116/60/5
f 123/53/2 119/56/2 139/55/2 141/54/2
f 124/57/5 142/58/5 140/59/5 120/60/5
f 127/53/2 123/56/2 141/55/2 143/54/2
f 128/57/5 144/58/5 142/59/5 124/60/5
f 127/49/6 143/50/6 144/51/6 128/52/6
f 129/53/2 130/56/2 146/55/2 145/54/2
f 130/50/3 131/51/3 147/52/3 146/49/3
f 132/57/5 148/58/5 147/59/5 131/60/5
f 133/53/2 129/56/2 145/55/2 149/54/2
f 134/57/5 150/58/5 148/59/5 132/60/5
f 135/53/2 133/56/2 149/55/2 151/54/2
f 136/57/5 152/58/5 150/59/5 134/60/5
f 137/53/2 135/56/2 151/55/2 153/54/2
f 138/57/5 154/58/5 152/59/5 136/60/5
f 139/53/2 137/56/2 153/55/2 155/54/2
f 140/57/5 156/58/5 154/59/5 138/60/5
f 141/53/2 139/56/2 155/55/2 157/54/2
f 142/57/5 158/58/5 156/59/5 140/60/5
f 143/53/2 141/56/2 157/55/2 159/54/2
f 144/57/5 160/58/5 158/59/5 142/60/5
f 143/49/6 159/50/6 160/51/6 144/52/6
f 145/53/2 146/56/2 162/55/2 161/54/2
f 146/50/3 147/51/3 163/52/3 162/49/3
f 148/57/5 164/58/5 163/59/5 147/60/5
f 149/53/2 145/56/2 161/55/2 165/54/2
f 150/57/5 166/58/5 164/59/5 148/60/5
f 153/53/2 151/56/2 167/55/2 173/54/2
f 154/57/5 174/58/5 171/59/5 152/60/5
f 155/53/2 153/56/2 173/55/2 175/54/2
f 156/57/5 176/58/5 174/59/5 154/60/5
f 157/53/2 155/56/2 175/55/2 177/54/2
f 158/57/5 178/58/5 176/59/5 156/60/5
f 159/53/2 157/56/2 177/55/2 179/54/2
f 160/57/5 180/58/5 178/59/5 158/60/5
f 159/49/6 179/50/6 180/51/6 160/52/6
f 161/53/2 162/56/2 182/55/2 181/54/2
f 162/50/3 163/51/3 183/52/3 182/49/3
f 164/57/5 184/58/5 183/59/5 163/60/5
f 165/53/2 161/56/2 181/55/2 185/54/2
f 166/57/5 186/58/5 184/59/5 164/60/5
f 167/53/2 165/56/2 185/55/2 187/54/2
f 171/57/5 188/58/5 186/59/5 166/60/5
f 173/53/2 167/56/2 187/55/2 189/54/2
f 174/57/5 190/58/5 188/59/5 171/60/5
f 175/53/2 173/56/2 189/55/2 191/54/2
f 176/57/5 192/58/5 190/59/5 174/60/5
f 177/53/2 175/56/2 191/55/2 193/54/2
f 178/57/5 194/58/5 192/59/5 176/60/5
f 179/53/2 177/56/2 193/55/2 195/54/2
f 180/57/5 196/58/5 194/59/5 178/60/5
f 179/49/6 195/50/6 196/51/6 180/52/6
f 181/53/2 182/56/2 198/55/2 197/54/2
f 182/50/3 183/51/3 199/52/3 198/49/3
f 184/57/5 200/58/5 199/59/5 183/60/5
f 185/53/2 181/56/2 197/55/2 201/54/2
f 186/57/5 202/58/5 200/59/5 184/60/5
f 187/53/2 185/56/2 201/55/2 203/54/2
f 188/57/5 204/58/5 202/59/5 186/60/5
f 189/53/2 187/56/2 203/55/2 205/54/2
f 190/57/5 206/58/5 204/59/5 188/60/5
f 191/53/2 189/56/2 205/55/2 207/54/2
f 192/57/5 208/58/5 206/59/5 190/60/5
f 193/53/2 191/56/2 207/55/2 209/54/2
f 195/53/2 193/56/2 209/55/2 215/54/2
f 196/57/5 216/58/5 213/59/5 194/60/5
f 195/49/6 215/50/6 216/51/6 196/52/6
f 197/53/2 198/56/2 218/55/2 217/54/2
f 198/50/3 199/51/3 219/52/3 218/49/3
f 200/57/5 220/58/5 219/59/5 199/60/5
f 201/53/2 197/56/2 217/55/2 221/54/2
f 202/57/5 222/58/5 220/59/5 200/60/5
f 205/53/2 203/56/2 227/55/2 231/54/2
f 207/53/2 205/56/2 231/55/2 235/54/2
f 209/53/2 207/56/2 235/55/2 236/54/2
f 213/57/5 237/58/5 238/59/5 208/60/5
f 215/53/2 209/56/2 236/55/2 239/54/2
f 216/57/5 240/58/5 237/59/5 213/60/5
f 215/49/6 239/50/6 240/51/6 216/52/6
f 217/53/2 218/56/2 242/55/2 241/54/2
f 218/50/3 219/51/3 243/52/3 242/49/3
f 220/57/5 244/58/5 243/59/5 219/60/5
f 221/53/2 217/56/2 241/55/2 245/54/2
f 222/57/5 246/58/5 244/59/5 220/60/5
f 227/53/2 221/56/2 245/55/2 247/54/2
f 229/57/5 248/58/5 246/59/5 222/60/5
f 231/53/2 227/56/2 247/55/2 249/54/2
f 233/57/5 250/58/5 248/59/5 229/60/5
f 235/53/2 231/56/2 249/55/2 251/54/2
f 238/57/5 252/58/5 250/59/5 233/60/5
f 236/53/2 235/56/2 251/55/2 253/54/2
f 237/57/5 254/58/5 252/59/5 238/60/5
f 239/53/2 236/56/2 253/55/2 255/54/2
f 240/57/5 256/58/5 254/59/5 237/60/5
f 239/49/6 255/50/6 256/51/6 240/52/6
f 241/53/2 242/56/2 258/55/2 257/54/2
f 242/50/3 243/51/3 259/52/3 258/49/3
f 257/49/4 258/50/4 259/51/4 260/52/4
f 244/57/5 260/58/5 259/59/5 243/60/5
f 245/53/2 241/56/2 257/55/2 261/54/2
f 261/49/4 257/50/4 260/51/4 262/52/4
f 246/57/5 262/58/5 260/59/5 244/60/5
f 247/53/2 245/56/2 261/55/2 263/54/2
f 263/49/4 261/50/4 262/51/4 264/52/4
f 248/57/5 264/58/5 262/59/5 246/60/5
f 249/53/2 247/56/2 263/55/2 265/54/2
f 265/49/4 263/50/4 264/51/4 266/52/4
f 250/57/5 266/58/5 264/59/5 248/60/5
f 251/53/2 249/56/2 265/55/2 267/54/2
f 267/49/4 265/50/4 266/51/4 268/52/4
f 252/57/5 268/58/5 266/59/5 250/60/5
f 253/53/2 251/56/2 267/55/2 269/54/2
f 269/49/4 267/50/4 268/51/4 270/52/4
f 254/57/5 270/58/5 268/59/5 252/60/5
f 255/53/2 253/56/2 269/55/2 271/54/2
f 271/49/4 269/50/4 270/51/4 272/52/4
f 256/57/5 272/58/5 270/59/5 254/60/5
f 255/49/6 271/50/6 272/51/6 256/52/6

g Dirt
usemtl Dirt
f 151/53/2 149/56/2 165/55/2 167/54/2
f 203/53/2 201/56/2 221/55/2 227/54/2

g Oak_Planks
usemtl Oak_Planks
f 204/74/1 228/75/1 223/76/1 202/73/1
f 202/74/3 223/75/3 226/76/3 222/73/3
f 229/73/4 222/74/4 226/75/4 230/76/4
f 228/73/5 230/74/5 226/75/5 223/76/5

g Oak_Log
usemtl Oak_Log
f 152/62/1 168/63/1 169/64/1 150/61/1
f 150/62/3 169/63/3 170/64/3 166/61/3
f 171/61/4 166/62/4 170/63/4 172/64/4
f 168/61/5 172/62/5 170/63/5 169/64/5
f 152/61/6 171/62/6 172/63/6 168/64/6
f 206/78/1 232/79/1 228/80/1 204/77/1
f 233/77/4 229/78/4 230/79/4 234/80/4
f 232/77/5 234/78/5 230/79/5 228/80/5
f 206/77/6 233/78/6 234/79/6 232/80/6

g Glass
usemtl Glass
f 202/70/1 223/71/1 224/72/1 200/69/1
f 200/70/3 224/71/3 225/72/3 220/69/3
f 222/69/4 220/70/4 225/71/4 226/72/4
f 223/69/5 226/70/5 225/71/5 224/72/5

g Rail
usemtl Rail
f 1/1/5 2/2/5 3/3/5 4/4/5
f 3/3/2 2/2/2 1/1/2 4/4/2
f 5/5/5 6/6/5 7/7/5 8/8/5
f 7/7/2 6/6/2 5/5/2 8/8/2
f 9/1/5 10/2/5 11/3/5 12/4/5
f 11/3/2 10/2/2 9/1/2 12/4/2
f 13/5/5 14/6/5 15/7/5 16/8/5
f 15/7/2 14/6/2 13/5/2 16/8/2
f 17/5/5 18/6/5 19/7/5 20/8/5
f 19/7/2 18/6/2 17/5/2 20/8/2
f 21/5/5 22/6/5 23/7/5 24/8/5
f 23/7/2 22/6/2 21/5/2 24/8/2
f 25/5/5 26/6/5 27/7/5 28/8/5
f 27/7/2 26/6/2 25/5/2 28/8/2
f 29/5/5 30/6/5 31/7/5 32/8/5
f 31/7/2 30/6/2 29/5/2 32/8/2

g Fence
usemtl Fence
f 35/12/1 33/9/1 34/10/1 36/11/1
f 39/12/3 37/9/3 33/10/3 35/11/3
f 39/11/4 40/12/4 38/9/4 37/10/4
f 39/15/5 35/16/5 36/13/5 40/14/5
f 40/11/6 36/12/6 34/9/6 38/10/6
f 43/20/1 41/17/1 42/18/1 44/19/1
f 42/21/2 41/24/2 45/23/2 46/22/2
f 47/27/3 45/25/3 41/13/3 43/26/3
f 47/19/4 48/20/4 46/17/4 45/18/4
f 47/23/5 43/24/5 44/21/5 48/22/5
f 48/23/6 44/24/6 42/14/6 46/28/6
f 51/32/1 49/29/1 50/30/1 52/31/1
f 50/21/2 49/24/2 53/23/2 54/22/2
f 55/36/3 53/33/3 49/34/3 51/35/3
f 55/31/4 56/32/4 54/29/4 53/30/4
f 55/23/5 51/24/5 52/21/5 56/22/5
f 56/39/6 52/40/6 50/37/6 54/38/6
f 59/12/1 57/9/1 58/10/1 60/11/1
f 63/12/3 61/9/3 57/10/3 59/11/3
f 63/11/4 64/12/4 62/9/4 61/10/4
f 63/15/5 59/16/5 60/13/5 64/14/5
f 64/11/6 60/12/6 58/9/6 62/10/6
f 67/20/1 65/17/1 66/18/1 68/19/1
f 66/41/2 65/27/2 69/26/2 70/42/2
f 71/24/3 69/14/3 65/28/3 67/23/3
f 71/19/4 72/20/4 70/17/4 69/18/4
f 71/26/5 67/27/5 68/41/5 72/42/5
f 72/26/6 68/27/6 66/25/6 70/13/6
f 75/32/1 73/29/1 74/30/1 76/31/1
f 74/41/2 73/27/2 77/26/2 78/42/2
f 79/40/3 77/37/3 73/38/3 75/39/3
f 79/31/4 80/32/4 78/29/4 77/30/4
f 79/26/5 75/27/5 76/41/5 80/42/5
f 80/35/6 76/36/6 74/33/6 78/34/6
f 91/12/1 89/9/1 90/10/1 92/11/1
f 95/12/3 93/9/3 89/10/3 91/11/3
f 95/11/4 96/12/4 94/9/4 93/10/4
f 95/15/5 91/16/5 92/13/5 96/14/5
f 96/11/6 92/12/6 90/9/6 94/10/6

g Glowstone
usemtl Glowstone
f 194/66/1 210/67/1 211/68/1 192/65/1
f 192/66/3 211/67/3 212/68/3 208/65/3
f 213/65/4 208/66/4 212/67/4 214/68/4
f 210/65/5 214/66/5 212/67/5 211/68/5
f 194/65/6 213/66/6 214/67/6 210/68/6

g Oak_Slab
usemtl Oak_Slab
f 83/46/1 81/43/1 82/44/1 84/45/1
f 87/45/4 88/46/4 86/43/4 85/44/4
f 87/47/5 83/48/5 84/43/5 88/44/5
f 88/45/6 84/46/6 82/43/6 86/44/6
